<?xml version="1.0"?>
<svg width="42px" height="42px" xmlns="http://www.w3.org/2000/svg" xmlns:xlink="http://www.w3.org/1999/xlink"  viewBox="0 0 128 128"><defs><linearGradient id="a" x1="119.108" y1="111.849" x2="14.579" y2="7.32" gradientUnits="userSpaceOnUse"><stop offset="0" stop-color="#fc6243"/><stop offset="1" stop-color="#fce277"/></linearGradient></defs><path d="M104.56,123.25a7.588,7.588,0,0,1-7.589-7.8l1.693-62.529A18.653,18.653,0,0,1,85.87,35.19V6.5a1.75,1.75,0,0,1,3.5,0V35.19a15.16,15.16,0,0,0,11.5,14.732,1.749,1.749,0,0,1,1.325,1.746l-1.73,63.88a4.093,4.093,0,1,0,8.182,0l-1.73-63.88a1.749,1.749,0,0,1,1.325-1.746,15.159,15.159,0,0,0,11.5-14.732V6.5a1.75,1.75,0,0,1,3.5,0V35.19a18.653,18.653,0,0,1-12.794,17.733l1.693,62.529a7.588,7.588,0,0,1-7.589,7.8ZM97.84,34.167V6.5a1.75,1.75,0,0,0-3.5,0V34.167a1.75,1.75,0,0,0,3.5,0Zm8.469,0V6.5a1.75,1.75,0,0,0-3.5,0V34.167a1.75,1.75,0,0,0,3.5,0Zm8.469,0V6.5a1.75,1.75,0,0,0-3.5,0V34.167a1.75,1.75,0,0,0,3.5,0Zm-86.216,55a1.75,1.75,0,0,0,1.7-1.8l-.139-5.091a1.75,1.75,0,1,0-3.5.1l.139,5.091a1.748,1.748,0,0,0,1.748,1.7Zm.315,31.786a7.528,7.528,0,0,0,2.147-5.5l-.569-21a1.75,1.75,0,0,0-1.748-1.7h-.049a1.748,1.748,0,0,0-1.7,1.8l.569,21a4.09,4.09,0,1,1-8.177,0L21.084,51.5a1.75,1.75,0,0,0-1.192-1.707C13.037,47.49,8.25,39.07,8.25,29.313,8.25,17.7,15.063,8.25,23.437,8.25S38.625,17.7,38.625,29.313c0,9.757-4.787,18.177-11.642,20.475a1.75,1.75,0,0,0-1.192,1.706l.653,24.133a1.75,1.75,0,0,0,3.5-.094l-.619-22.9c7.6-3.286,12.8-12.649,12.8-23.324,0-13.544-8.383-24.563-18.688-24.563S4.75,15.769,4.75,29.313c0,10.675,5.2,20.038,12.8,23.324l-1.7,62.818a7.59,7.59,0,0,0,13.026,5.5ZM72.3,115.669V60.75a1.75,1.75,0,0,0-3.5,0v54.919a4.086,4.086,0,0,1-4.081,4.081,4.081,4.081,0,0,1-4.072-4.343l2.1-32.638a1.749,1.749,0,0,0-.905-1.647l-6.987-3.831c.753-30.656,6.659-53.97,11.51-68.187a1.25,1.25,0,0,1,2.435.4V50.25a1.75,1.75,0,0,0,3.5,0V9.505a4.75,4.75,0,0,0-9.247-1.532C58.064,22.589,51.982,46.65,51.33,78.278a1.751,1.751,0,0,0,.909,1.571l6.943,3.806-2.029,31.528a7.581,7.581,0,1,0,15.146.486Z" /></svg>
